<svg width="40" height="40" viewBox="0 0 40 40" fill="none" xmlns="http://www.w3.org/2000/svg">
<g clip-path="url(#clip0)">
<path d="M20 0C8.95443 0 0 8.95443 0 20C0 31.0456 8.95443 40 20 40C20.6025 40 21.2028 39.973 21.8001 39.9193C22.3555 39.8695 22.9059 39.7933 23.4522 39.6979L23.6621 39.6608C33.8174 37.7656 40.8587 28.4482 39.9089 18.1611C38.959 7.87402 30.3307 0.00325521 20 0V0ZM18.3932 38.596H18.346C17.8275 38.5501 17.3128 38.4808 16.8027 38.3919C16.7734 38.3867 16.7441 38.3835 16.7155 38.3779C16.2168 38.2887 15.7233 38.1781 15.2347 38.0488L15.1165 38.0186C14.64 37.8893 14.1686 37.7393 13.7041 37.5726C13.6559 37.5553 13.6074 37.54 13.5592 37.5221C13.1038 37.3548 12.6566 37.1673 12.2161 36.9645C12.1615 36.9401 12.1068 36.9167 12.0521 36.8906C11.6201 36.6908 11.1966 36.4655 10.7813 36.2285C10.7227 36.1953 10.6634 36.1621 10.6048 36.1292C10.196 35.8906 9.79655 35.6348 9.40462 35.3646C9.34538 35.3232 9.28548 35.2832 9.22656 35.2419C8.84147 34.9688 8.46615 34.6787 8.10059 34.3753L8 34.2874V28.6667C8.00488 24.6185 11.2852 21.3382 15.3333 21.3333H24.6667C28.7148 21.3382 31.9951 24.6185 32 28.6667V34.2881L31.9115 34.362C31.5387 34.6732 31.1563 34.9674 30.7633 35.2454C30.7113 35.2819 30.6585 35.3167 30.6068 35.3525C30.2103 35.6279 29.804 35.887 29.388 36.1305C29.3359 36.1608 29.2826 36.1895 29.2308 36.2194C28.8092 36.4593 28.3805 36.6859 27.9434 36.89C27.8932 36.9134 27.8428 36.9352 27.792 36.9567C27.348 37.1615 26.8968 37.3499 26.4382 37.5186C26.3926 37.5355 26.3467 37.5501 26.3047 37.5661C25.8379 37.7334 25.3646 37.8848 24.8854 38.0146L24.7705 38.0433C24.2813 38.1725 23.7874 38.2839 23.2881 38.3734C23.2594 38.3786 23.2308 38.3822 23.2022 38.3867C22.6914 38.4759 22.1761 38.5452 21.6572 38.5915H21.61C21.0768 38.6374 20.5433 38.6621 20.0033 38.6621C19.4632 38.6621 18.9255 38.6419 18.3932 38.596ZM33.3333 33.0521V28.6667C33.3278 23.8825 29.4508 20.0055 24.6667 20H15.3333C10.5492 20.0055 6.6722 23.8825 6.66667 28.6667V33.0514C-0.513672 25.723 -0.433594 13.9733 6.8457 6.74316C14.125 -0.486654 25.875 -0.486654 33.1543 6.74316C40.4336 13.9733 40.5137 25.723 33.3333 33.0514V33.0521Z" fill="#4A5056"/>
<path d="M19.9999 5.33337C16.318 5.33337 13.3333 8.31807 13.3333 12C13.3333 15.682 16.318 18.6667 19.9999 18.6667C23.6819 18.6667 26.6666 15.682 26.6666 12C26.6627 8.3197 23.6803 5.33728 19.9999 5.33337ZM19.9999 17.3334C17.0543 17.3334 14.6666 14.9457 14.6666 12C14.6666 9.0544 17.0543 6.66671 19.9999 6.66671C22.9456 6.66671 25.3333 9.0544 25.3333 12C25.33 14.9441 22.9439 17.3301 19.9999 17.3334Z" fill="#4A5056"/>
</g>
<defs>
<clipPath id="clip0">
<rect width="40" height="40" fill="white"/>
</clipPath>
</defs>
</svg>
