<svg width="15" height="15" viewBox="0 0 15 15" fill="none" xmlns="http://www.w3.org/2000/svg">
<path d="M14.5208 13.6626L10.9508 9.94962C11.8687 8.85844 12.3716 7.48552 12.3716 6.05624C12.3716 2.71688 9.65476 0 6.3154 0C2.97604 0 0.259155 2.71688 0.259155 6.05624C0.259155 9.3956 2.97604 12.1125 6.3154 12.1125C7.56904 12.1125 8.7637 11.7344 9.7851 11.0166L13.3822 14.7578C13.5326 14.9139 13.7348 15 13.9515 15C14.1567 15 14.3512 14.9218 14.499 14.7796C14.8128 14.4776 14.8228 13.9768 14.5208 13.6626ZM6.3154 1.57989C8.78371 1.57989 10.7918 3.58793 10.7918 6.05624C10.7918 8.52456 8.78371 10.5326 6.3154 10.5326C3.84708 10.5326 1.83904 8.52456 1.83904 6.05624C1.83904 3.58793 3.84708 1.57989 6.3154 1.57989Z" fill="#AEB5BC"/>
</svg>
